<svg xmlns="http://www.w3.org/2000/svg" version="1.1" xmlns:xlink="http://www.w3.org/1999/xlink" xmlns:svgjs="http://svgjs.com/svgjs" width="114.000000pt" height="100.000000pt"><svg version="1.0" xmlns="http://www.w3.org/2000/svg" width="114.000000pt" height="100.000000pt" viewBox="0 0 114.000000 100.000000" preserveAspectRatio="xMidYMid meet">

<g transform="translate(0.000000,100.000000) scale(0.100000,-0.100000)" fill="#000000" stroke="none">
<path d="M0 500 l0 -500 570 0 570 0 0 500 0 500 -570 0 -570 0 0 -500z m433
206 c6 -15 -6 -29 -35 -39 -23 -8 -23 -17 8 -122 15 -50 30 -119 33 -155 l6
-65 38 130 c37 130 37 131 21 178 -9 27 -14 50 -11 53 10 10 122 33 128 26 11
-12 79 -270 79 -299 1 -74 19 -43 53 90 20 78 37 148 37 155 0 7 -13 12 -30
12 -25 0 -30 4 -30 25 l0 25 104 0 c82 0 105 -3 109 -15 4 -9 -5 -21 -23 -31
-24 -15 -33 -33 -61 -128 -17 -61 -46 -160 -64 -221 l-32 -110 -62 -5 -62 -5
-37 117 -36 117 -29 -102 c-16 -56 -33 -106 -38 -111 -5 -6 -34 -13 -65 -16
-44 -5 -57 -3 -63 9 -4 9 -38 114 -76 234 -63 200 -71 217 -92 217 -18 0 -23
6 -23 25 l0 25 124 0 c98 0 125 -3 129 -14z"></path>
</g>
</svg><style>@media (prefers-color-scheme: light) { :root { filter: none; } }
</style></svg>